<svg xmlns="http://www.w3.org/2000/svg" viewBox="0 0 96 96" role="img" aria-label="Skopyr favicon">
  <rect width="96" height="96" rx="24" fill="#0C0C0E" />
  <rect x="10" y="10" width="76" height="76" rx="20" fill="#FF6B2B" />
  <path
    d="M60.6 30.4c-3.8-3.3-8.8-5-15.1-5-8.7 0-15.2 3.4-19.3 10.3l9.4 5.3c2.1-3.5 5.4-5.2 9.9-5.2 4.8 0 7.2 1.4 7.2 4.2 0 1.3-.7 2.4-2 3.2-1.3.8-3.7 1.7-7.2 2.7-5.8 1.6-10 3.4-12.7 5.4-2.7 2-4 5.3-4 9.8 0 4.8 1.8 8.7 5.5 11.5 3.7 2.8 8.4 4.2 14.2 4.2 9.2 0 15.9-3.5 20.2-10.5l-9.5-5.5c-2.3 3.6-5.8 5.4-10.6 5.4-5.3 0-8-1.6-8-4.8 0-1.4.6-2.5 1.9-3.4 1.3-.9 3.8-1.8 7.5-2.8 6-1.7 10.2-3.5 12.7-5.5 2.5-2 3.8-5.1 3.8-9.3 0-4.7-1.9-8.5-5.7-11.8Z"
    fill="#0C0C0E"
  />
</svg>
